<svg width="296" height="65" viewBox="0 0 296 65" fill="none" xmlns="http://www.w3.org/2000/svg">
<g clip-path="url(#clip0_181_3568)">
<path d="M63.27 65H1.72998L32.5 34.23L63.27 65Z" fill="white"/>
<path d="M30.77 32.5L0 63.28V1.72998L30.77 32.5Z" fill="white"/>
<path d="M63.27 0L32.5 30.78L1.72998 0H63.27Z" fill="white"/>
<path d="M84.33 35.6699L82 38.2099V45.0499H77V19.9399H82V31.4099L92.3 19.9399H98.7L87.61 32.0699L99.17 45.0699H92.62L84.33 35.6699Z" fill="white"/>
<path d="M118.52 26.5V45.05H113.79V42.83C113.035 43.6724 112.11 44.3451 111.075 44.8036C110.041 45.2621 108.921 45.4961 107.79 45.49C102.63 45.49 98.73 41.31 98.73 35.78C98.73 30.25 102.63 26.07 107.79 26.07C108.921 26.0627 110.04 26.295 111.074 26.7518C112.108 27.2086 113.034 27.8794 113.79 28.72V26.5H118.52ZM113.79 35.78C113.78 34.7707 113.472 33.7869 112.903 32.9527C112.335 32.1186 111.532 31.4714 110.596 31.0929C109.661 30.7144 108.634 30.6215 107.645 30.8259C106.657 31.0303 105.751 31.5229 105.042 32.2415C104.333 32.9601 103.853 33.8725 103.662 34.8637C103.472 35.8548 103.578 36.8803 103.97 37.8108C104.361 38.7412 105.019 39.535 105.861 40.0919C106.703 40.6488 107.691 40.9439 108.7 40.94C109.381 40.9581 110.059 40.8367 110.691 40.5834C111.324 40.3301 111.898 39.9502 112.378 39.467C112.859 38.9837 113.235 38.4074 113.485 37.7734C113.735 37.1394 113.852 36.461 113.83 35.78H113.79Z" fill="white"/>
<path d="M142.3 35.78C142.3 41.31 138.44 45.49 133.3 45.49C132.167 45.5052 131.045 45.2754 130.009 44.8163C128.973 44.3571 128.049 43.6796 127.3 42.83V51.94H122.52V26.5H127.25V28.72C128.001 27.8733 128.926 27.1984 129.961 26.7411C130.997 26.2838 132.118 26.0549 133.25 26.07C138.44 26.07 142.3 30.25 142.3 35.78ZM137.42 35.78C137.406 34.7764 137.096 33.7993 136.528 32.9715C135.961 32.1437 135.161 31.5022 134.23 31.1277C133.299 30.7532 132.278 30.6623 131.295 30.8665C130.312 31.0708 129.412 31.561 128.707 32.2755C128.002 32.9901 127.524 33.8971 127.333 34.8825C127.143 35.8679 127.247 36.8877 127.635 37.8137C128.022 38.7397 128.674 39.5306 129.51 40.0868C130.345 40.6431 131.326 40.9399 132.33 40.94C133.008 40.9526 133.681 40.8272 134.309 40.5714C134.937 40.3156 135.506 39.9348 135.982 39.4522C136.458 38.9696 136.831 38.3951 137.078 37.7639C137.326 37.1326 137.442 36.4576 137.42 35.78Z" fill="white"/>
<path d="M144.52 20.8301C144.52 20.2367 144.696 19.6567 145.026 19.1634C145.355 18.67 145.824 18.2855 146.372 18.0584C146.92 17.8314 147.523 17.772 148.105 17.8877C148.687 18.0035 149.222 18.2892 149.641 18.7088C150.061 19.1283 150.347 19.6629 150.462 20.2448C150.578 20.8268 150.519 21.43 150.292 21.9781C150.065 22.5263 149.68 22.9948 149.187 23.3245C148.693 23.6541 148.113 23.8301 147.52 23.8301C147.123 23.8411 146.728 23.7711 146.359 23.6242C145.99 23.4773 145.655 23.2568 145.374 22.976C145.093 22.6952 144.873 22.36 144.726 21.9911C144.579 21.6221 144.509 21.227 144.52 20.8301ZM145.14 26.5001H149.87V45.0501H145.14V26.5001Z" fill="white"/>
<path d="M160.52 30.8301V38.5401C160.52 40.1101 161.39 40.9101 163.06 40.9101C163.91 40.8927 164.745 40.6806 165.5 40.2901V44.6901C164.435 45.2497 163.243 45.5253 162.04 45.4901C157.79 45.4901 155.79 43.0201 155.79 39.3101V30.8301H152.79V26.5001H155.79V21.8101H160.52V26.5001H165.52V30.8301H160.52Z" fill="white"/>
<path d="M187.79 26.5V45.05H183.06V42.83C182.305 43.6724 181.38 44.3451 180.345 44.8036C179.311 45.2621 178.191 45.4961 177.06 45.49C171.89 45.49 168 41.31 168 35.78C168 30.25 171.89 26.07 177.06 26.07C178.191 26.0627 179.31 26.295 180.344 26.7518C181.378 27.2086 182.304 27.8794 183.06 28.72V26.5H187.79ZM183.06 35.78C183.05 34.7719 182.742 33.7893 182.175 32.9558C181.608 32.1223 180.807 31.4751 179.873 31.0957C178.939 30.7163 177.914 30.6216 176.926 30.8236C175.939 31.0256 175.033 31.5152 174.323 32.2308C173.613 32.9464 173.13 33.856 172.936 34.8452C172.742 35.8344 172.844 36.859 173.231 37.79C173.618 38.721 174.271 39.5168 175.109 40.0773C175.947 40.6378 176.932 40.938 177.94 40.94C178.62 40.9567 179.297 40.8343 179.928 40.5804C180.56 40.3265 181.133 39.9463 181.612 39.4632C182.091 38.9802 182.467 38.4043 182.716 37.771C182.965 37.1377 183.082 36.4602 183.06 35.78Z" fill="white"/>
<path d="M191.74 18.8701H196.46V45.0501H191.74V18.8701Z" fill="white"/>
<path d="M229.23 38.2502C229.242 39.1635 229.067 40.0695 228.717 40.913C228.367 41.7566 227.848 42.5198 227.193 43.1562C226.538 43.7926 225.76 44.2888 224.907 44.6144C224.053 44.9401 223.143 45.0884 222.23 45.0502H209.52V19.9402H221.3C222.163 19.9023 223.024 20.04 223.832 20.3448C224.64 20.6497 225.378 21.1154 226.001 21.7138C226.623 22.3122 227.118 23.0308 227.455 23.8261C227.792 24.6213 227.964 25.4766 227.96 26.3402C227.981 27.4121 227.725 28.4711 227.215 29.4141C226.705 30.357 225.959 31.1516 225.05 31.7202C226.327 32.2555 227.412 33.167 228.158 34.3335C228.905 35.4999 229.279 36.8661 229.23 38.2502ZM214.43 24.4702V30.0002H220.1C220.462 29.9989 220.819 29.9261 221.152 29.7859C221.486 29.6458 221.788 29.4411 222.042 29.1836C222.295 28.9261 222.496 28.6209 222.631 28.2857C222.766 27.9504 222.834 27.5917 222.83 27.2302C222.841 26.8674 222.778 26.5061 222.645 26.1683C222.512 25.8305 222.312 25.5232 222.057 25.2651C221.801 25.007 221.496 24.8034 221.16 24.6668C220.824 24.5302 220.463 24.4633 220.1 24.4702H214.43ZM224.07 37.3802C224.077 36.9673 224 36.5573 223.846 36.1745C223.691 35.7917 223.46 35.4439 223.168 35.1519C222.876 34.8599 222.529 34.6296 222.146 34.4747C221.763 34.3198 221.353 34.2435 220.94 34.2502H214.43V40.5402H220.94C221.355 40.5457 221.767 40.4675 222.151 40.3102C222.535 40.153 222.884 39.92 223.176 39.625C223.468 39.3301 223.698 38.9793 223.852 38.5936C224.005 38.2079 224.079 37.7953 224.07 37.3802Z" fill="white"/>
<path d="M251.6 26.5V45.05H246.87V42.83C246.115 43.6724 245.19 44.3451 244.155 44.8036C243.121 45.2621 242.001 45.4961 240.87 45.49C235.71 45.49 231.82 41.31 231.82 35.78C231.82 30.25 235.71 26.07 240.87 26.07C242.001 26.0627 243.12 26.295 244.154 26.7518C245.188 27.2086 246.114 27.8794 246.87 28.72V26.5H251.6ZM246.87 35.78C246.86 34.7724 246.553 33.7902 245.986 32.9569C245.419 32.1236 244.619 31.4764 243.686 31.0967C242.752 30.717 241.728 30.6217 240.74 30.8229C239.753 31.0241 238.847 31.5127 238.136 32.2273C237.426 32.9419 236.943 33.8506 236.747 34.8391C236.552 35.8277 236.653 36.8519 237.038 37.7831C237.423 38.7142 238.075 39.5108 238.912 40.0725C239.748 40.6342 240.732 40.936 241.74 40.94C242.421 40.9581 243.099 40.8367 243.731 40.5834C244.364 40.3301 244.938 39.9502 245.418 39.467C245.899 38.9837 246.275 38.4074 246.525 37.7734C246.775 37.1394 246.892 36.461 246.87 35.78Z" fill="white"/>
<path d="M273.41 33.2699V45.0499H268.69V34.7999C268.732 34.2501 268.657 33.6976 268.467 33.1796C268.278 32.6615 267.981 32.1901 267.594 31.7968C267.207 31.4036 266.741 31.0978 266.226 30.8999C265.712 30.7021 265.16 30.6168 264.61 30.6499C264.039 30.6016 263.464 30.6767 262.924 30.8702C262.384 31.0636 261.892 31.3709 261.481 31.7711C261.071 32.1713 260.751 32.6552 260.544 33.1898C260.336 33.7245 260.246 34.2974 260.28 34.8699V45.0499H255.52V26.4999H260.24V28.5799C260.983 27.7596 261.896 27.1103 262.914 26.6769C263.933 26.2436 265.034 26.0365 266.14 26.0699C270.52 26.0699 273.41 28.9399 273.41 33.2699Z" fill="white"/>
<path d="M283.52 38.6501L281.88 40.4301V45.0501H277.16V18.8701H281.88V34.1001L288.72 26.5001H294.83L286.83 35.0901L295.05 45.0901H288.86L283.52 38.6501Z" fill="white"/>
</g>
<defs>
<clipPath id="clip0_181_3568">
<rect width="295.12" height="65" fill="white"/>
</clipPath>
</defs>
</svg>
