<svg width="50" height="50" viewBox="0 0 50 50" fill="none" xmlns="http://www.w3.org/2000/svg">
<g clip-path="url(#clip0_181_3554)">
<path d="M26.9544 22.4644H23.0456V26.3732H26.9544V22.4644Z" fill="#A0072E"/>
<path d="M44.1401 3.90883H41.7947V0.0200195H37.8859V3.92888H12.1074V0.0200195H8.19858V3.92888H5.85327C4.30027 3.93065 2.81148 4.54882 1.71398 5.64758C0.616467 6.74634 -1.00958e-06 8.23583 0 9.78883V44.12C-1.00958e-06 45.673 0.616467 47.1625 1.71398 48.2612C2.81148 49.36 4.30027 49.9782 5.85327 49.9799H25.9522C24.6028 48.8789 23.429 47.5789 22.4709 46.1245H5.85327C5.59275 46.1237 5.33501 46.0709 5.09516 45.9692C4.85531 45.8675 4.63817 45.719 4.45646 45.5323C4.27475 45.3456 4.13213 45.1245 4.03695 44.882C3.94177 44.6395 3.89595 44.3804 3.90218 44.12V18.3616H46.0911V22.4642C47.567 23.4198 48.8875 24.5961 50.0067 25.9521V9.76878C50.0049 8.21401 49.386 6.72353 48.286 5.62477C47.186 4.52601 45.6948 3.90883 44.1401 3.90883ZM46.0911 14.4527H3.90218V9.77546C3.90218 9.25739 4.10752 8.76043 4.47323 8.39347C4.83894 8.02651 5.33519 7.81946 5.85327 7.81769H8.19858V11.7266H12.1074V7.81101H37.8859V11.7199H41.7947V7.81101H44.1401C44.6581 7.81278 45.1544 8.01983 45.5201 8.38679C45.8858 8.75375 46.0911 9.25071 46.0911 9.76878V14.4527Z" fill="#A0072E"/>
<path d="M36.8168 23.6338C34.2097 23.6351 31.6615 24.4094 29.4944 25.8588C27.3273 27.3082 25.6386 29.3676 24.6419 31.7766C23.6451 34.1857 23.385 36.8362 23.8944 39.393C24.4038 41.9499 25.6599 44.2983 27.5039 46.1413C29.3479 47.9843 31.6969 49.2393 34.254 49.7474C36.8111 50.2555 39.4615 49.9941 41.87 48.9961C44.2786 47.9981 46.3371 46.3083 47.7854 44.1405C49.2337 41.9727 50.0067 39.4241 50.0067 36.817C50.0032 33.3205 48.6122 29.9684 46.1392 27.4966C43.6661 25.0249 40.3133 23.6356 36.8168 23.6338ZM36.8168 46.098C34.9809 46.0994 33.1858 45.5562 31.6587 44.5372C30.1316 43.5181 28.941 42.0691 28.2375 40.3733C27.534 38.6776 27.3492 36.8112 27.7066 35.0105C28.064 33.2097 28.9474 31.5553 30.2451 30.2567C31.5428 28.958 33.1965 28.0734 34.997 27.7148C36.7975 27.3561 38.664 27.5395 40.3603 28.2418C42.0566 28.9441 43.5064 30.1336 44.5266 31.66C45.5467 33.1864 46.0912 34.9811 46.0912 36.817C46.0938 38.0372 45.8559 39.2461 45.3912 40.3743C44.9265 41.5026 44.244 42.5283 43.3827 43.3926C42.5214 44.257 41.4982 44.9432 40.3716 45.412C39.245 45.8808 38.037 46.123 36.8168 46.1248V46.098Z" fill="#A0072E"/>
<path d="M38.6743 30.2754H34.7655V38.768H41.9952V34.8658H38.6743V30.2754Z" fill="#A0072E"/>
<path d="M19.1434 30.2754H15.2345V34.1842H19.1434V30.2754Z" fill="#A0072E"/>
<path d="M11.3324 30.2754H7.42349V34.1842H11.3324V30.2754Z" fill="#A0072E"/>
<path d="M11.3324 22.4644H7.42349V26.3732H11.3324V22.4644Z" fill="#A0072E"/>
<path d="M11.3324 38.0864H7.42349V41.9953H11.3324V38.0864Z" fill="#A0072E"/>
<path d="M19.1434 22.4644H15.2345V26.3732H19.1434V22.4644Z" fill="#A0072E"/>
<path d="M19.1434 38.0864H15.2345V41.9953H19.1434V38.0864Z" fill="#A0072E"/>
</g>
<defs>
<clipPath id="clip0_181_3554">
<rect width="50" height="50" fill="white"/>
</clipPath>
</defs>
</svg>
