<svg xmlns="http://www.w3.org/2000/svg" width="36" height="50" viewBox="0 0 36 50" fill="none">
<g clip-path="url(#clip0_183_3728)">
<mask id="mask0_183_3728" style="mask-type:luminance" maskUnits="userSpaceOnUse" x="0" y="0" width="36" height="50">
<path d="M35.1567 0H0V50H35.1567V0Z" fill="white"/>
</mask>
<g mask="url(#mask0_183_3728)">
<path d="M17.1932 50.0195C16.7864 49.6887 16.4126 49.3193 16.077 48.9164C13.1267 44.7127 10.1502 40.5156 7.28462 36.2532C4.85678 32.7666 2.88269 28.9851 1.40994 24.9999C0.478572 22.5117 0.00317693 19.8761 0.00654857 17.2193C0.100472 12.9749 1.72724 8.90801 4.58634 5.76976C7.44544 2.63151 11.3437 0.634001 15.5609 0.146233C19.7782 -0.341535 24.0295 0.713399 27.5294 3.11615C31.0294 5.51891 33.5416 9.10713 34.6018 13.2179C35.4793 16.831 35.2842 20.6214 34.0405 24.1253C32.751 27.9927 30.9368 31.6649 28.6488 35.0391C26.0379 39.0012 23.2703 42.872 20.5744 46.7884C20.0849 47.4999 19.628 48.231 19.0992 48.9099C18.75 49.3042 18.375 49.6749 17.9765 50.0195H17.1932ZM17.5849 45.9072C17.6567 45.8224 17.7089 45.7702 17.7546 45.7049C20.222 42.1866 22.735 38.6488 25.1436 35.0783C27.5093 31.7049 29.4496 28.0524 30.9204 24.2036C32.0036 21.5145 32.4137 18.6016 32.1149 15.718C31.6433 11.9375 29.7104 8.49203 26.7299 6.11912C23.7494 3.74622 19.9584 2.63455 16.1684 3.02213C10.6854 3.57696 6.71673 6.47513 4.30812 11.4099C2.57182 14.9738 2.58488 18.6945 3.65537 22.4477C4.71837 25.85 6.2192 29.0996 8.12013 32.1148C10.953 36.8341 14.2689 41.2532 17.4282 45.731C17.4804 45.7767 17.5522 45.8224 17.5849 45.8877V45.9072Z" fill="white"/>
<path d="M8.79242 17.5651C8.79372 15.8251 9.31132 14.1245 10.2797 12.6787C11.248 11.233 12.6236 10.1071 14.2322 9.44358C15.8409 8.78007 17.6102 8.6088 19.3162 8.95145C21.0222 9.2941 22.5882 10.1353 23.8159 11.3684C25.0436 12.6016 25.8777 14.1713 26.2128 15.8788C26.5478 17.5864 26.3686 19.3549 25.698 20.9606C25.0273 22.5662 23.8953 23.9367 22.4452 24.8986C20.9951 25.8605 19.2923 26.3706 17.5522 26.3641C15.2259 26.352 12.9989 25.4199 11.3576 23.7712C9.71632 22.1226 8.79411 19.8915 8.79242 17.5651ZM17.5848 23.4398C18.7467 23.4398 19.8826 23.0953 20.8486 22.4498C21.8147 21.8042 22.5677 20.8867 23.0123 19.8133C23.457 18.7398 23.5733 17.5586 23.3466 16.4191C23.12 15.2795 22.5605 14.2327 21.7389 13.4111C20.9173 12.5895 19.8705 12.03 18.7309 11.8033C17.5914 11.5767 16.4102 11.693 15.3367 12.1377C14.2633 12.5823 13.3458 13.3353 12.7002 14.3013C12.0547 15.2674 11.7102 16.4032 11.7102 17.5651C11.7119 19.1221 12.3316 20.6146 13.4331 21.7149C14.5347 22.8152 16.0279 23.4333 17.5848 23.4333V23.4398Z" fill="white"/>
</g>
</g>
<defs>
<clipPath id="clip0_183_3728">
<rect width="36" height="50" fill="white"/>
</clipPath>
</defs>
</svg>