<svg width="230" height="80" viewBox="0 0 230 80" fill="none" xmlns="http://www.w3.org/2000/svg">
<g clip-path="url(#clip0_181_3583)">
<path d="M95.2639 34.4983C95.2681 33.3391 95.5282 32.1952 96.0257 31.1485C96.5329 30.0799 97.2598 29.1307 98.1589 28.3633C99.1464 27.5416 100.271 26.901 101.481 26.4709C102.89 25.9598 104.378 25.7015 105.877 25.7078C107.289 25.6914 108.691 25.9372 110.014 26.4327C111.21 26.8913 112.303 27.5839 113.229 28.4701C114.127 29.3311 114.835 30.3708 115.309 31.5224C115.81 32.7318 116.069 34.0282 116.07 35.3377H110.509C110.54 34.7497 110.448 34.1617 110.24 33.6112C110.031 33.0607 109.71 32.5598 109.297 32.1405C108.347 31.337 107.116 30.9445 105.877 31.0493C104.653 30.9707 103.445 31.3516 102.486 32.1176C102.131 32.3876 101.838 32.7325 101.63 33.1281C101.422 33.5237 101.304 33.9602 101.283 34.4068C101.266 34.827 101.365 35.2438 101.569 35.6113C101.774 35.9788 102.075 36.2828 102.441 36.4899C103.354 37.0393 104.328 37.4798 105.343 37.8024C106.509 38.1916 107.766 38.5655 109.153 39.0157C110.489 39.4177 111.768 39.9869 112.962 40.7097C114.118 41.4186 115.108 42.3685 115.865 43.4949C116.693 44.8368 117.097 46.3982 117.023 47.9741C117.028 49.0855 116.766 50.1819 116.261 51.1714C115.692 52.245 114.915 53.1944 113.975 53.9642C112.934 54.828 111.747 55.4998 110.471 55.9482C107.502 56.9297 104.297 56.9297 101.328 55.9482C100.058 55.5098 98.8954 54.8077 97.9152 53.8879C96.9823 53.0046 96.2474 51.9331 95.7591 50.744C95.2466 49.4739 94.9877 48.1155 94.9972 46.7456H100.803C100.775 47.3754 100.883 48.0038 101.121 48.5874C101.36 49.1711 101.721 49.696 102.182 50.126C103.2 51.0189 104.525 51.4788 105.877 51.4079C107.235 51.5068 108.585 51.1202 109.686 50.3167C110.072 50.0147 110.386 49.6295 110.604 49.1896C110.821 48.7498 110.937 48.2666 110.943 47.7757C110.957 47.3414 110.857 46.9111 110.653 46.5279C110.448 46.1448 110.146 45.8224 109.777 45.5933C108.873 45.0106 107.897 44.5465 106.875 44.2122C105.717 43.8052 104.447 43.4084 103.065 43.0218C101.732 42.6563 100.452 42.1203 99.256 41.427C98.1129 40.7625 97.1235 39.8626 96.3533 38.7868C95.5523 37.5062 95.1714 36.0067 95.2639 34.4983Z" fill="white"/>
<path d="M131.544 51.1638C132.39 51.2388 133.243 51.1278 134.042 50.8386C134.841 50.5494 135.567 50.089 136.17 49.4895C136.773 48.89 137.238 48.1658 137.532 47.3677C137.827 46.5695 137.944 45.7166 137.875 44.8685V25.9673H143.681V44.8685C143.699 46.4873 143.393 48.0934 142.782 49.5919C142.205 51.0003 141.35 52.2774 140.267 53.3461C139.145 54.4362 137.813 55.2853 136.351 55.8414C133.236 57.0315 129.791 57.0315 126.676 55.8414C125.256 55.2786 123.965 54.4352 122.879 53.3614C121.792 52.2877 120.933 51.0056 120.352 49.5919C119.747 48.0918 119.444 46.4864 119.461 44.8685V25.9673H125.266V44.8685C125.198 45.7124 125.314 46.5611 125.606 47.3557C125.898 48.1503 126.359 48.8719 126.957 49.4706C127.554 50.0693 128.275 50.5308 129.068 50.8232C129.862 51.1155 130.709 51.2317 131.552 51.1638H131.544Z" fill="white"/>
<path d="M159.124 25.9673C160.515 25.9435 161.896 26.2031 163.184 26.7304C164.418 27.2431 165.545 27.9834 166.506 28.9128C167.456 29.8342 168.213 30.9369 168.731 32.1558C169.526 34.0219 169.739 36.0854 169.342 38.0751C168.945 40.0647 167.956 41.8876 166.506 43.3042C165.55 44.2555 164.423 45.0167 163.184 45.5476C161.896 46.0749 160.515 46.3345 159.124 46.3107H153.562V56.4977H147.779V25.9749L159.124 25.9673ZM159.124 40.7479C159.727 40.7499 160.323 40.6169 160.868 40.3588C161.406 40.1073 161.896 39.7639 162.316 39.3439C162.735 38.93 163.08 38.4474 163.337 37.917C163.588 37.3701 163.718 36.7753 163.718 36.1733C163.718 35.5714 163.588 34.9766 163.337 34.4297C163.083 33.8885 162.738 33.3954 162.316 32.9723C161.896 32.5523 161.406 32.2088 160.868 31.9574C160.323 31.6993 159.727 31.5663 159.124 31.5682H153.562V40.7479H159.124Z" fill="white"/>
<path d="M168.799 53.5904C168.799 52.7546 169.131 51.953 169.721 51.362C170.311 50.771 171.111 50.439 171.946 50.439C172.78 50.439 173.581 50.771 174.171 51.362C174.761 51.953 175.092 52.7546 175.092 53.5904C175.092 54.4263 174.761 55.2278 174.171 55.8189C173.581 56.4099 172.78 56.7419 171.946 56.7419C171.111 56.7419 170.311 56.4099 169.721 55.8189C169.131 55.2278 168.799 54.4263 168.799 53.5904Z" fill="white"/>
<path d="M185.972 56.4976L175.092 25.9749H181.134L188.874 48.2641L196.615 25.9673H202.634L191.747 56.49L185.972 56.4976Z" fill="white"/>
<path d="M207.266 41.2284C207.247 42.5956 207.493 43.9534 207.99 45.2269C208.437 46.3869 209.093 47.455 209.925 48.3784C210.715 49.2535 211.677 49.955 212.751 50.4387C213.837 50.9356 215.016 51.1957 216.21 51.2017C217.167 51.2143 218.118 51.0593 219.021 50.7439C219.827 50.4553 220.585 50.0462 221.269 49.5306C221.903 49.0564 222.459 48.4847 222.915 47.8366C223.345 47.2153 223.698 46.544 223.966 45.8374H230.015C229.653 47.307 229.067 48.7122 228.278 50.0037C227.482 51.3146 226.475 52.485 225.299 53.468C224.084 54.4754 222.712 55.277 221.238 55.8412C217.777 57.1169 213.959 57.0131 210.572 55.5512C208.806 54.7737 207.211 53.6533 205.879 52.2548C204.504 50.8281 203.404 49.1596 202.634 47.333C201.053 43.4173 201.053 39.0396 202.634 35.1239C203.386 33.2958 204.468 31.6221 205.826 30.1868C207.158 28.7883 208.753 27.6679 210.519 26.8904C212.312 26.0988 214.251 25.6957 216.21 25.7076C217.876 25.6915 219.529 25.9972 221.078 26.6081C222.527 27.1763 223.873 27.9779 225.063 28.9812C226.23 29.9672 227.228 31.1374 228.019 32.4455C228.811 33.7354 229.397 35.1411 229.756 36.6119H223.715C223.51 35.9146 223.199 35.2531 222.793 34.6508C222.362 34.0065 221.833 33.4347 221.223 32.9568C220.56 32.4353 219.816 32.0255 219.021 31.7435C218.118 31.4281 217.167 31.2731 216.21 31.2857C215.016 31.2879 213.836 31.5482 212.751 32.0487C211.675 32.5289 210.712 33.2309 209.925 34.109C209.089 35.0222 208.426 36.0796 207.967 37.23C207.479 38.5053 207.241 39.8629 207.266 41.2284Z" fill="white"/>
<path d="M25.8045 34.7728V28.3096H-0.0228271V54.1547C-0.0228285 57.5506 0.645379 60.9133 1.9436 64.0504C3.24182 67.1876 5.14461 70.0378 7.54319 72.438C9.94178 74.8382 12.7891 76.7415 15.9225 78.039C19.0559 79.3365 22.4139 80.0028 25.8045 79.9998V34.7728Z" fill="white"/>
<path d="M56.5305 1.1269e-06H30.7337V25.8375H56.5305V51.652C63.3696 51.6541 69.9296 48.936 74.7685 44.0952C79.6073 39.2545 82.3289 32.6873 82.3349 25.8375C82.3349 22.4438 81.6674 19.0834 80.3706 15.9481C79.0737 12.8129 77.1728 9.96425 74.7765 7.56492C72.3803 5.16559 69.5356 3.26258 66.4049 1.96457C63.2742 0.666565 59.9188 -0.00100114 56.5305 1.1269e-06Z" fill="white"/>
<path d="M28.2653 28.3096V79.9998C35.109 79.9998 41.6725 77.2768 46.5117 72.4299C51.351 67.583 54.0697 61.0092 54.0697 54.1547V28.3096H28.2653Z" fill="white"/>
</g>
<defs>
<clipPath id="clip0_181_3583">
<rect width="230" height="80" fill="white"/>
</clipPath>
</defs>
</svg>
